<svg xmlns="http://www.w3.org/2000/svg" viewBox="0 0 64 54" fill="none" role="img" aria-label="RateMyTWU flame">
  <g transform="translate(15,17) scale(0.68)"><path d="M0 0 C 6 12, 6 28, 0 42 C -6 28, -6 12, 0 0 Z" fill="#8A722F"></path></g>
  <g transform="translate(23,9) scale(0.84)"><path d="M0 0 C 6 12, 6 28, 0 42 C -6 28, -6 12, 0 0 Z" fill="#B89A54"></path></g>
  <g transform="translate(32,4) scale(1)"><path d="M0 0 C 6 12, 6 28, 0 42 C -6 28, -6 12, 0 0 Z" fill="#C9A84C"></path></g>
  <g transform="translate(41,10) scale(0.84)"><path d="M0 0 C 6 12, 6 28, 0 42 C -6 28, -6 12, 0 0 Z" fill="#D4B463"></path></g>
  <g transform="translate(49,18) scale(0.68)"><path d="M0 0 C 6 12, 6 28, 0 42 C -6 28, -6 12, 0 0 Z" fill="#B89A54"></path></g>
</svg>